<svg width="302" height="302" viewBox="0 0 302 302" fill="none" xmlns="http://www.w3.org/2000/svg">
<g clip-path="url(#clip0_188_1181)">
<path d="M301.381 123.008L123.008 0L0 178.374L178.374 301.381L301.381 123.008Z" fill="#6DA060"/>
<path d="M105.81 207.384C112.117 211.68 137.349 230.204 141.478 234.297C147.091 239.853 138.531 235.109 136.548 233.987C125.815 227.938 88.7399 202.125 78.7159 194.106C78.1419 193.64 71.2641 188.213 72.3591 187.669C73.3293 187.916 74.3664 188.245 75.282 188.649C80.0909 190.789 100.416 203.699 105.799 207.376L105.81 207.384Z" fill="#6DA060"/>
<path d="M205.629 93.2095C202.939 101.642 198.24 110.11 191.194 115.644C200.311 116.296 208.8 121.272 218.063 120.287C214.247 126.661 205.062 132.369 197.548 131.963C202.828 135.99 208.568 140.089 215.362 141.158C209.434 144.408 202.183 144.41 195.917 142.143C209.465 162.107 199.146 181.271 179.698 192.137C174.796 194.866 143.949 208.388 138.568 210.031C106.738 219.785 98.0948 199.658 99.4276 171.734C101.026 159.284 100.189 139.116 104.156 127.966C110.191 111.044 123.309 101.465 141.313 105.015C141.964 104.147 132.288 99.7216 133.807 85.707C137.786 90.6281 144.194 92.3082 148.726 96.5044C144.661 83.765 149.883 80.5199 152.927 69.7162C155.562 80.1 162.445 88.7787 165.024 99.1416C165.916 95.4556 171.145 88.1779 171.02 85.4059C170.999 84.7241 169.41 81.5042 171.883 84.3331C172.304 84.8168 176.028 95.0213 176.391 96.43C178.356 104.298 176.75 107.035 177.286 107.071C185.477 96.2882 196.927 100.076 205.617 93.2013L205.629 93.2095Z" fill="#8BC27C"/>
<path d="M175.722 118.86C181.952 113.975 188.135 109.005 194.503 104.303C196.405 102.894 198.571 101.789 200.183 99.9868C198.192 101.194 196.341 102.656 194.459 104.01C191.459 106.171 177.528 117.209 176.522 117.726C176.332 117.823 175.974 117.858 176.053 117.667C178.968 115.375 181.353 112.298 184.212 109.934C187.705 107.058 194.751 103.333 202.614 97.0465C202.639 97.0108 202.81 97.3222 203.334 96.3844L203.679 96.6223C197.966 108.166 194.988 114.749 182.171 118.673C191.096 113.189 192.905 111.381 182.506 118.009C174.085 121.26 182.506 117.271 185.489 115.185C187.779 113.57 192.183 110.111 193.755 108.035C189.658 111.583 182.877 117.088 177.961 118.999C173.395 120.784 180.385 117.037 181.288 116.414C185.305 113.619 189.287 110.186 192.963 107.121C190.512 108.538 177.469 119.433 175.726 118.88L175.722 118.86Z" fill="#6DA060"/>
<path d="M176.095 121.68L200.511 121.683L178.653 121.127C178.003 120.872 179.342 120.637 180.66 120.457C185.862 119.761 191.255 120.163 196.47 120.441C197.237 119.864 191.319 119.943 190.698 119.673C187.28 119.844 183.727 119.623 180.334 119.987C183.342 118.884 186.474 118.568 189.639 118.433C190.355 118.489 191.877 119.082 192.635 118.569C191.482 118.001 190.309 118.404 189.639 118.433C188.426 118.334 187.283 118.108 186.034 118.265C193.396 113.494 207.059 121.353 215.412 121.689C210.784 124.606 176.862 124.615 177.421 122.735C186.373 123.73 195.678 123.423 204.592 122.461L204.388 122.197C199.896 122.856 178.76 123.466 176.074 121.684L176.095 121.68Z" fill="#6DA060"/>
<path d="M204.903 126.133C210.637 124.768 210.196 124.798 204.725 126.01C197.15 127.703 189.055 128.037 181.609 125.623C190.485 126.829 197.901 126.308 206.624 124.758C213.828 123.476 212.913 123.529 206.279 124.52C201.12 125.28 196.343 125.971 191.077 125.868C189.723 125.847 180.518 125.117 179.933 124.871C175.517 122.95 182.67 124.441 186.275 124.61C192.692 124.927 209.631 124.268 215.608 121.964L215.812 122.228C209.719 128.594 200.795 133.465 191.904 130.423L199.628 130.22C207.964 128.034 200.285 129.953 196.875 130.112C192.932 130.307 186.879 129.538 183.496 127.697C191.039 130.073 199.263 129.705 206.63 126.938C206.842 125.943 197.364 130.677 186.619 128.183C186.088 128.063 181.513 126.856 182.041 126.448C189.489 128.248 197.505 128.334 204.871 126.129L204.903 126.133Z" fill="#6DA060"/>
<path d="M202.539 96.7488C198.476 100.986 189.728 105.118 184.914 108.891C181.371 111.661 178.33 115.129 174.968 118.095C174.957 118.087 174.616 118.326 174.681 117.774C177.598 113.747 180.745 110.685 184.7 107.725C186.883 106.088 196.063 100.92 188.555 104.731C183.122 108.181 178.14 112.172 174.298 117.387C177.613 109.983 184.682 105.536 191.526 101.899L191.181 101.661C186.07 104.491 180.995 107.522 177.113 112.007C171.532 121.448 173.59 115.231 177.073 110.944C178.532 109.159 183.834 105.162 181.428 106.487C179.402 107.618 176.814 111.117 175.132 112.818C181.171 99.4276 189.898 100.39 199.403 97.5534C201.542 96.9216 204.002 95.2124 202.519 96.7525L202.539 96.7488Z" fill="#6DA060"/>
<path d="M172.045 88.0436C171.27 98.0772 170.711 108.154 171.423 118.195C168.696 109.574 170.279 101.73 171.057 93.0149C169.82 100.307 168.621 107.749 170.097 115.104C167.04 108.361 170.097 98.7603 170.621 91.4326C169.288 98.483 167.65 105.745 168.78 112.914C167.574 113.364 167.454 106.716 167.484 105.859C167.629 102.237 168.748 98.6549 169.157 95.0575C167.679 100.358 166.584 105.993 167.46 111.495C166.734 112.75 166.126 107.064 166.124 106.711C166.144 104.671 166.898 102.61 167.13 100.594C166.528 100.372 165.162 108.488 166.298 110.939C164.858 111.474 164.91 103.329 165.704 100.243C166.891 95.6192 169.719 91.4425 171.863 87.3914C171.928 87.5768 171.879 87.9288 172.065 88.0399L172.045 88.0436Z" fill="#6DA060"/>
<path d="M171.907 115.457C170.627 108.658 172.373 95.4851 172.045 88.0438C172.069 88.0602 172.213 87.5453 172.545 87.8793C175.23 95.3135 178.555 103.856 174.755 111.505C174.401 105.503 174.246 114.56 173.474 114.483L174.235 101.263L173.862 98.4428C173.866 99.9902 173.363 117.216 172.43 117.117C172.16 111.12 172.948 105.063 172.918 99.0734C172.921 98.6365 172.886 96.0142 172.486 96.7215C172.19 101.275 172.389 112.085 171.899 115.469L171.907 115.457Z" fill="#6DA060"/>
<path d="M210.866 140.779C205.755 143.1 196.752 138.997 192.568 135.621C190.55 133.404 184.681 129.62 188.11 131.265C190.331 132.322 194.992 136.713 198.266 138.532C203.135 141.222 208.437 140.56 203.113 140.084C197.001 138.432 192.98 133.903 187.817 130.571C193.616 132.446 197.703 138.179 203.755 139.508L203.814 139.04C198.72 138.231 194.977 133.858 190.676 131.261C194.659 130.883 199.74 136.88 201.439 137.648C201.499 137.689 201.993 137.609 201.856 137.426C200.559 136.251 195.151 132.715 194.777 132.035C193.456 129.597 208.667 141.702 210.838 140.794L210.866 140.779Z" fill="#6DA060"/>
<path d="M141.946 92.7419C143.438 93.7354 146.716 95.8554 147.693 96.7046C148.583 97.4762 151.531 101.932 151.714 102.813C151.766 103.042 151.545 103.363 151.353 103.336C149.941 101.819 142.53 94.8997 141.99 94.5625C141.613 94.3201 141.395 94.1523 141.407 94.6696C156.747 107.987 157.161 109.729 140.987 95.6612C139.475 94.1622 137.59 90.8615 138.1 92.3888C139.28 95.8188 153.279 105.736 154.466 107.783C154.587 107.989 154.816 108.446 154.602 108.527C149.114 104.215 139.945 97.1721 137.124 91.207C137.022 91.049 136.228 91.8703 135.266 88.504C137.246 90.343 139.812 91.3053 141.978 92.7464L141.946 92.7419Z" fill="#6DA060"/>
<path d="M134.737 88.2792C138.237 97.6624 146.089 104.148 153.436 110.549C148.648 107.615 144.107 103.992 140.49 99.6901C138.243 97.0171 134.676 90.6073 138.412 97.4847C142.211 102.72 147.212 106.871 152.534 110.559C148.404 108.834 144.572 106.016 141.509 102.693C140.57 102.554 143.782 105.506 144.051 105.727C146.363 107.619 149.483 109.332 152.015 110.955L151.777 111.3C143.298 107.226 133.589 98.5474 134.765 88.2636L134.737 88.2792Z" fill="#6DA060"/>
<path d="M150.653 115.704C149.795 115.727 148.783 115.591 147.738 116.011C146.965 115.478 153.68 111.086 154.959 110.581C158.069 109.355 161.342 109.751 164.436 110.814L164.338 111.133C161.413 110.59 157.688 110.11 155.024 111.784C157.961 111.089 162.532 110.519 165.36 111.714C167.613 112.672 162.568 111.562 162.139 111.547C156.804 111.239 149.766 114.496 160.089 111.924C162.775 111.898 165.687 112.08 167.777 114.013C163.146 112.048 158.007 112.525 153.362 114.22C157.837 113.408 162.991 111.942 167.122 114.58C162.443 113.144 157.193 113.298 152.585 114.965C155.02 114.59 158.335 113.857 160.767 113.919C161.28 113.939 166.14 114.324 165.532 115.028C161.765 114.941 153.906 114.805 150.673 115.701L150.653 115.704Z" fill="#6DA060"/>
<path d="M202.602 97.0383C194.739 103.325 187.693 107.05 184.201 109.926C181.329 112.282 178.956 115.367 176.042 117.658C175.962 117.85 176.312 117.827 176.51 117.718C177.516 117.201 191.447 106.163 194.448 104.002L194.503 104.303C188.135 109.005 181.952 113.975 175.722 118.86C175.546 118.809 175.07 118.253 174.977 118.083C178.338 115.117 181.388 111.637 184.923 108.879C189.728 105.118 198.484 100.974 202.547 96.7368L202.602 97.0383Z" fill="#8BC27C"/>
<path d="M212.151 141.156C212.528 141.907 206.568 142.888 205.786 142.928C201.549 143.166 196.622 142.138 193.281 139.448C187.411 132.942 193.452 139.302 196.605 140.967C202.053 142.741 196.557 140.935 192.488 137.62C191.534 136.839 190.562 135.677 189.682 134.79C190.526 133.897 196.034 144.646 212.151 141.156Z" fill="#6DA060"/>
<path d="M176.095 121.68C175.892 121.541 176.206 120.984 176.015 120.853C175.896 120.771 173.363 121.008 176.678 120.274C176.462 121.758 177.837 120.248 180.354 119.983C183.747 119.62 187.303 119.86 190.718 119.669C191.339 119.939 197.257 119.86 196.49 120.437C191.263 120.151 185.882 119.757 180.68 120.453C179.362 120.633 178.023 120.869 178.673 121.123L200.532 121.679L176.115 121.676L176.095 121.68Z" fill="#8BC27C"/>
<path d="M139.035 95.1055C143.963 100.382 149.465 105.107 155.09 109.653C153.75 109.712 149.235 105.211 148.794 105.188L148.556 105.533C155.204 110.276 156.358 112.09 148.842 106.239C145.466 102.683 141.136 99.4158 139.035 95.1055Z" fill="#6DA060"/>
<path d="M201.237 140.563C202.741 141.513 198.099 140.278 196.97 139.675C192.966 137.563 186.722 131.344 189.728 133.399C191.335 134.507 193.255 136.814 195.816 138.37C197.615 139.452 200.991 140.411 201.237 140.563Z" fill="#6DA060"/>
<path d="M206.621 124.737L206.276 124.499C212.922 123.518 213.836 123.464 206.621 124.737Z" fill="#8BC27C"/>
<path d="M204.903 126.133L204.725 126.01C210.184 124.789 210.625 124.76 204.903 126.133Z" fill="#8BC27C"/>
<path d="M184.803 128.985C185.745 129.248 186.071 130.684 184.387 129.207C184.241 129.036 184.671 128.946 184.803 128.985Z" fill="#8BC27C"/>
<path d="M171.907 115.457C171.907 115.457 172.339 116.053 171.808 116.161C171.615 115.677 171.914 115.497 171.907 115.457Z" fill="#6DA060"/>
<path d="M153.262 83.5876C153.262 83.5876 153.555 83.3677 153.362 82.8836C152.831 82.9915 153.267 83.5556 153.262 83.5876C152.285 90.4271 157.821 103.198 161.669 109.047C161.165 110.261 156.778 100.968 156.437 100.418C155.788 99.8825 156.924 102.386 157.214 103.008C158.897 106.626 162.625 112.778 157.77 105.181C152.518 95.2572 152.388 85.1613 153.145 74.2375C151.327 86.0626 152.719 98.5555 159.207 108.876C158.755 109.582 155.76 103.971 155.446 103.333C152.263 96.9248 151.073 89.7666 151.192 82.6691C150.693 82.553 150.942 88.3776 151.011 89.0922C151.636 96.2816 154.374 102.646 157.977 108.8L157.714 109.004C154.127 103.284 150.371 97.4282 149.609 90.5654C148.398 90.362 151.131 98.0575 151.425 98.7516C152.781 101.952 154.731 104.929 156.597 107.848C152.249 104.429 148.528 95.3147 148.132 89.9329C147.633 83.1463 150.321 79.681 152.607 73.744C153.412 72.2974 154.646 77.6604 155.761 80.1673C158.291 85.7912 161.933 91.4806 163.64 97.4323C166.429 107.185 162.7 99.6103 160.521 96.1767C161.667 99.4778 165.875 103.889 163.67 106.705C161.389 101.129 158.344 95.1844 156.554 89.4559C156.004 87.7075 155.855 84.9191 155.41 85.7178C157.046 94.1137 161.3 101.717 164.374 109.63C163.918 109.807 163.93 109.587 163.71 109.295C161.915 106.934 155.975 92.8662 155.043 89.4321C154.558 87.6407 154.633 85.1645 153.966 85.2141C155.088 93.9747 159.734 101.849 163.179 109.684C162.212 109.965 158.049 101.441 157.457 100.085C154.377 93.0455 154.586 90.4512 153.283 83.5839L153.262 83.5876Z" fill="#6DA060"/>
<path d="M153.262 83.5876C153.262 83.5876 152.831 82.9916 153.362 82.8837C153.554 83.3677 153.255 83.5474 153.262 83.5876Z" fill="#8BC27C"/>
<path d="M153.334 81.8289L153.538 82.0926L153.263 82.2887L153.237 82.148L153.334 81.8289Z" fill="#8BC27C"/>
<path d="M194.503 104.303L194.448 104.002C196.329 102.648 198.18 101.186 200.171 99.9787C198.571 101.79 196.393 102.886 194.491 104.295L194.503 104.303Z" fill="#8BC27C"/>
<path d="M189.639 118.433C190.297 118.396 191.473 118.013 192.635 118.569C191.878 119.082 190.356 118.489 189.639 118.433Z" fill="#8BC27C"/>
<path d="M150.653 115.704C151.72 115.685 165.529 114.956 165.329 115.678C161.637 115.941 157.847 115.837 154.165 116.213C154.012 116.739 163.661 115.985 164.463 115.994C170.715 116.092 163.342 116.906 161.167 117.056C160.059 117.135 154.647 116.914 154.991 117.432L166.616 116.969L159.4 118.295C159.071 119.332 168.314 116.824 168.91 117.919C165.787 117.942 168.386 118.12 167.966 118.55C159.009 120.694 157.248 121.007 148.81 116.136C149.441 116.062 150.033 115.891 150.637 115.728L150.653 115.704Z" fill="#6DA060"/>
<path d="M161.515 119.35C163.535 118.917 168.307 118.03 163.687 119.18C162.882 119.38 162.329 119.367 161.515 119.35Z" fill="#8BC27C"/>
<path d="M161.516 119.35C161.516 119.35 160.78 119.756 160.689 119.43C161.085 118.931 161.475 119.358 161.516 119.35Z" fill="#8BC27C"/>
<path d="M197.565 170.683C197.789 170.205 200.356 163.988 198.575 166.622C198.542 166.67 198.52 167.796 198.499 167.851C198.395 168.078 197.499 169.251 197.416 169.422C197.342 169.581 197.713 169.679 197.638 169.838C197.443 170.248 197.076 170.17 196.861 170.584C196.786 170.743 197.157 170.893 197.148 170.905C185.836 193.368 167.178 195.476 146.889 205.78C127.728 213.124 108.744 217.411 101.993 192.427C100.031 185.141 100.449 173.053 100.804 165.258C100.988 161.224 102.226 143.417 102.608 140.292C105.405 117.398 118.75 101.305 143.083 106.393C145.331 108.734 148.14 110.337 150.826 112.119L143.546 118.018C149.661 115.845 150.197 118.479 155.198 120.137C160.828 122.001 164.281 119.642 169.777 119.131C193.976 136.048 216.902 161.302 186.625 186.013C191.161 181.013 194.697 176.903 197.577 170.691L197.565 170.683Z" fill="#6DA060"/>
<path d="M197.565 170.683C197.129 170.347 197.195 170.481 197.148 170.905C197.157 170.893 196.774 170.735 196.861 170.584C197.076 170.17 197.451 170.236 197.638 169.838C197.713 169.679 197.342 169.581 197.416 169.422C197.491 169.263 198.395 168.078 198.499 167.852C198.532 167.804 198.542 166.67 198.575 166.622C200.356 163.988 197.789 170.205 197.565 170.683Z" fill="#8BC27C"/>
<path d="M192.972 174.187C191.463 179.15 181.412 188.404 177.056 191.106C174.166 192.904 157.17 199.476 151.807 202.747C135.58 209.094 116.499 218.231 105.117 198.69C104.752 197.666 103.161 194.374 104.178 195.216C105.143 196.005 106.8 208.189 122.674 209.761C136.75 211.165 162.603 196.078 176.239 190.788C182.755 186.329 188.998 181.171 192.96 174.178L192.972 174.187Z" fill="#8BC27C"/>
<path d="M192.623 171.892C191.567 174.798 184.716 182.748 182.205 185.141C175.319 191.716 171.907 191.241 169.945 192.1C159.792 196.615 137.153 207.984 127.041 208.647C122.205 208.964 115.142 207.903 111.762 204.15C112.72 204.39 113.903 205.679 114.865 206.167C120.819 209.167 129.988 208.064 136.145 206.06C137.438 205.636 146.724 201.998 148.781 201.152C156.859 197.839 164.555 193.298 172.884 190.791C178.939 188.63 190.25 176.733 192.556 171.582C192.763 171.69 192.653 171.772 192.611 171.884L192.623 171.892Z" fill="#8BC27C"/>
<path d="M155.074 196.89C151.345 198.936 134.804 205.663 132.095 206.358C121.731 209.041 111.762 205.168 107.626 194.873C108.048 194.339 108.499 196.458 109.77 198.282C121.336 214.755 139.597 202.174 153.66 197.056C153.957 196.752 153.517 196.729 153.619 196.378C153.904 196.575 154.818 196.853 155.07 196.869L155.074 196.89Z" fill="#8BC27C"/>
<path d="M161.638 193.71C161.808 193.616 161.938 192.969 162.538 192.786C171.779 188.678 175.829 188.557 183.217 180.696C188.631 174.932 193.032 167.786 194.633 160.042C194.628 166.516 188.291 175.909 183.978 180.712C176.683 188.847 171.327 189.841 161.65 193.718L161.638 193.71Z" fill="#8BC27C"/>
<path d="M153.503 195.807C147.005 198.102 133.551 204.781 127.624 205.205C121.532 205.639 114.071 203.373 111.168 197.579C111.434 196.709 113.204 200.633 115.988 202.324C120.677 205.172 129.001 205.066 134.087 203.114L153.698 195.168C153.519 195.554 153.57 195.659 153.515 195.815L153.503 195.807Z" fill="#8BC27C"/>
<path d="M159.496 191.215C157.855 191.61 156.308 192.351 155.062 193.546C154.856 193.386 155.06 193.193 154.775 193.225C153.574 193.362 146.38 197.811 143.909 197.424C144.047 197.326 144.128 197.03 144.27 196.9C152.382 194.454 159.905 189.706 167.502 186.325C167.376 187.221 160.188 190.059 159.496 191.215Z" fill="#8BC27C"/>
<path d="M128.7 196.186C129.759 196.636 124.599 197.168 123.048 196.923C121.368 196.661 119.608 196.184 118.414 194.886L122.992 196.622L128.688 196.178L128.7 196.186Z" fill="#8BC27C"/>
<path d="M179.186 177.021C179.355 177.488 174.802 181.722 174.537 181.521C174.411 180.838 176.373 179.75 176.478 179.648C176.821 179.304 178.005 177.383 179.186 177.021Z" fill="#8BC27C"/>
<path d="M177.279 130.221L174.677 135.115C174.897 133.371 176.113 131.506 177.279 130.221Z" fill="#8BC27C"/>
<path d="M199.212 156.915C199.191 157.989 198.706 161.289 198.46 161.926C197.47 164.456 198.286 159.226 199.212 156.915Z" fill="#8BC27C"/>
<path d="M145.33 187.344C144.737 188.357 142.339 188.933 141.075 189.799L140.993 189.356L145.338 187.332L145.33 187.344Z" fill="#8BC27C"/>
<path d="M173.625 175.767L170.412 178.186C169.985 177.838 173.491 175.604 173.625 175.767Z" fill="#8BC27C"/>
<path d="M148.17 189.565C148.577 189.688 147.981 190.12 147.834 190.23C145.837 191.854 142.691 192.037 148.17 189.565Z" fill="#8BC27C"/>
<path d="M170.401 172.244C170.788 172.371 170.371 172.645 170.066 172.909C167.769 174.993 166.108 174.27 170.401 172.244Z" fill="#8BC27C"/>
<path d="M160.643 183.772C160.797 183.931 160.066 184.533 159.896 184.679C157.291 186.674 155.826 185.998 160.643 183.772Z" fill="#8BC27C"/>
<path d="M106.438 196.775L108.129 199.363C107.735 199.705 106.296 197.414 106.438 196.775Z" fill="#8BC27C"/>
<path d="M124.567 193.6L124.772 193.864C120.705 195.536 120.009 194.915 124.567 193.6Z" fill="#8BC27C"/>
<path d="M159.608 186.394C159.698 186.544 159.395 186.932 159.273 187.058C157.974 188.356 154.248 188.947 159.608 186.394Z" fill="#8BC27C"/>
<path d="M183.851 164.298L182.185 165.976C181.813 165.701 183.217 164.124 183.851 164.298Z" fill="#8BC27C"/>
<path d="M152.089 183.526C152.179 183.675 151.983 183.909 151.868 184.023C151.163 184.818 146.782 185.747 152.089 183.526Z" fill="#8BC27C"/>
<path d="M137.993 191.29L138.197 191.553C135.309 193.196 134.865 192.591 137.993 191.29Z" fill="#8BC27C"/>
<path d="M152.58 185.41L150.213 186.603C150.037 186.324 152.294 185.493 152.58 185.41Z" fill="#8BC27C"/>
<path d="M131.472 193.464C130.612 193.871 129.815 194.34 128.843 194.477C128.422 193.941 131.315 193.514 131.472 193.464Z" fill="#8BC27C"/>
<path d="M104.579 188.295L105.108 190.328C104.623 190.573 104.068 188.68 104.579 188.295Z" fill="#8BC27C"/>
<path d="M170.424 181.529C170.487 181.819 169.834 182.053 169.621 182.134C167.148 183.097 167.417 181.79 170.424 181.529Z" fill="#8BC27C"/>
<path d="M190.311 167.226C189.01 171.226 189.401 167.757 189.869 167.307C189.91 167.247 190.166 167.284 190.311 167.226Z" fill="#8BC27C"/>
<path d="M131.54 190.947C131.66 190.977 131.762 191.083 131.744 191.211C128.509 192.72 130.913 190.761 131.54 190.947Z" fill="#8BC27C"/>
<path d="M131.472 193.464C131.472 193.464 132.042 192.944 132.634 192.721C132.949 193.359 132.024 193.3 131.472 193.464Z" fill="#8BC27C"/>
<path d="M144.27 196.9C144.128 197.03 144.047 197.326 143.909 197.424C143.446 197.789 141.421 198.639 140.875 198.667C138.055 198.811 140.195 196.776 138.049 197.368C137.752 197.443 133.555 199.71 132.485 200.219C131.721 200.587 130.403 200.539 129.716 200.873C129.401 201.024 127.474 203.03 126.389 203.458C123.396 204.642 123.365 202.777 123.202 202.682C122.65 202.337 115.181 202.909 112.881 196.215C113.092 196.061 115.18 199.397 115.671 199.806C117.74 201.566 123.073 202.436 123.402 202.188C126.257 200.085 119.189 201.425 115.52 197.402C113.595 194.109 115.438 197.012 116.345 197.708C118.745 199.574 123.547 200.603 124.281 200.354C124.74 200.197 125.747 199.119 125.709 199.022C125.491 198.573 119.845 199.735 116.811 195.326C118.439 195.588 117.813 196.14 117.884 196.189C124.096 200.876 128.826 197.046 129.574 196.93C133.705 196.285 130.134 199.58 130.912 200.03L139.747 195.975C142.56 191.209 151.772 190.171 144.25 196.904L144.27 196.9Z" fill="#8BC27C"/>
<path d="M130.377 197.852C130.938 198.362 127.89 202.018 125.925 202.629C122.061 203.827 125.968 198.34 130.377 197.852Z" fill="#6DA060"/>
<path d="M146.067 192.996C146.715 193.583 143.53 196.828 141.861 197.415C137.708 198.905 141.647 193.423 146.067 192.996Z" fill="#6DA060"/>
<path d="M162.538 192.786C161.95 192.977 161.816 193.604 161.638 193.71C160.687 194.248 157.78 197.088 155.074 196.89C154.81 196.865 153.888 196.598 153.622 196.398C153.639 196.374 153.499 195.839 153.515 195.815C153.57 195.659 153.519 195.554 153.698 195.168C154.029 194.484 154.553 194.055 155.074 193.554C156.319 192.359 157.866 191.618 159.508 191.223C162.877 191.404 164.714 189.529 167.768 188.563C167.357 185.085 173.687 183.849 176.03 182.182C178.426 180.464 184.382 173.354 182.285 176.472C180.048 179.792 176.319 182.171 176.264 182.607C176.227 182.915 177.708 183.287 177.893 183.222C179.586 182.651 188.297 172.209 189.058 169.451C190.592 170.052 174.868 191.071 168.002 188.987C165.603 190.581 162.273 190.549 162.542 192.806L162.538 192.786Z" fill="#8BC27C"/>
<path d="M176.313 183.782C177.086 184.596 172.46 187.41 171.115 187.781C165.41 189.359 171.275 184.012 176.313 183.782Z" fill="#6DA060"/>
<path d="M161.229 191.883C162.61 192.783 157.757 195.545 156.614 195.775C150.41 197.009 159.674 190.881 161.229 191.883Z" fill="#6DA060"/>
<path d="M108.52 135.995C110.673 136.182 110.229 143.827 109.338 145.425C105.311 152.689 105.297 135.704 108.52 135.995Z" fill="#8BC27C"/>
<path d="M108.738 137.182C109.199 139.185 109.602 142.394 108.834 144.323C106.548 149.979 106.215 138.04 108.738 137.182Z" fill="#6DA060"/>
<path d="M125.368 165.608C129.135 166.661 120.977 181.241 120.82 173.145C120.774 170.462 123.967 165.221 125.368 165.608Z" fill="#8BC27C"/>
<path d="M124.991 166.893C125.745 167.097 124.95 171.815 123.322 173.589C120.332 176.881 122.127 167.762 124.991 166.893Z" fill="#6DA060"/>
<path d="M145.224 179.301C147.903 180.482 139.84 188.789 137.771 186.748C135.998 185.017 142.983 178.3 145.224 179.301Z" fill="#8BC27C"/>
<path d="M144.502 180.348C145.311 180.906 142.108 185.016 140.157 185.707C135.311 187.439 142.991 179.306 144.502 180.348Z" fill="#6DA060"/>
<path d="M108.64 154.073C109.874 154.677 110.394 161.356 107.813 163.648C105.589 165.626 105.204 160.252 105.54 158.746C105.753 157.751 107.272 153.41 108.64 154.073Z" fill="#8BC27C"/>
<path d="M108.097 155.243C108.936 155.172 108.969 160.215 108.32 161.436C105.999 165.821 105.311 158.57 108.097 155.243Z" fill="#6DA060"/>
<path d="M162.83 175.765C164.251 176.886 159.802 181.454 157.302 182.1C149.647 184.089 159.852 173.413 162.83 175.765Z" fill="#8BC27C"/>
<path d="M161.763 176.574C163.691 177.851 154.071 183.91 155.74 180.268C156.678 178.246 161.231 176.225 161.763 176.574Z" fill="#6DA060"/>
<path d="M158.159 162.784C159.9 163.721 156.252 169.088 153.556 170.02C147.212 172.193 155.138 161.157 158.159 162.784Z" fill="#8BC27C"/>
<path d="M157.437 163.831C157.91 165.386 155.162 168.301 153.81 168.913C150.261 170.521 153.061 164.78 157.437 163.831Z" fill="#6DA060"/>
<path d="M122.76 148.133C125.405 149.237 121.661 160.928 119.214 156.993C117.743 154.645 121.16 147.451 122.76 148.133Z" fill="#8BC27C"/>
<path d="M122.395 149.426C122.898 149.562 122.666 153.335 122.349 154.152C119.881 160.455 118.048 153.134 122.395 149.426Z" fill="#6DA060"/>
<path d="M173.572 157.21C175.242 158.326 170.503 164.766 167.642 164.689C163.11 164.565 171.224 155.625 173.572 157.21Z" fill="#8BC27C"/>
<path d="M172.672 158.134C173.575 158.581 171.03 162.373 168.921 163.394C164.09 165.715 170.846 157.243 172.672 158.134Z" fill="#6DA060"/>
<path d="M136.332 147.468C138.835 148.37 134.909 157.704 132.539 156.685C129.808 155.504 134.399 146.785 136.332 147.468Z" fill="#8BC27C"/>
<path d="M136.078 148.575C136.471 150.601 135.497 153.669 134.064 155.033C131.623 157.352 132.287 150.788 136.078 148.575Z" fill="#6DA060"/>
<path d="M129.649 180.656C132.204 181.61 127.165 190.265 124.588 188.734C122.161 187.288 127.629 179.894 129.649 180.656Z" fill="#8BC27C"/>
<path d="M129.102 181.806C129.886 182.171 128.468 185.933 126.759 187.265C123.46 189.835 125.281 182.892 129.102 181.806Z" fill="#6DA060"/>
<path d="M113.045 168.942C115.241 169.754 112.969 178.878 110.494 178.242C107.184 177.364 111.172 168.247 113.045 168.942Z" fill="#8BC27C"/>
<path d="M112.668 170.227C113.247 170.38 112.899 173.914 112.681 174.484C110.234 180.96 108.388 173.683 112.668 170.227Z" fill="#6DA060"/>
<path d="M136.465 131.62C139.226 132.962 133.313 143.42 131.641 139.353C130.603 136.812 134.81 130.812 136.465 131.62Z" fill="#8BC27C"/>
<path d="M136.036 132.624C136.451 134.542 135.401 137.312 134.09 138.602C131.452 141.206 131.964 134.608 136.036 132.624Z" fill="#6DA060"/>
<path d="M142.144 162.536C143.983 163.383 141.041 169.763 138.286 170.549C133.535 171.89 139.502 161.328 142.144 162.536Z" fill="#8BC27C"/>
<path d="M141.589 163.698C142.337 165.846 138.799 170.06 137.805 169.567C136.456 168.901 138.965 164.346 141.589 163.698Z" fill="#6DA060"/>
<path d="M114.082 185.334C116.231 186.113 113.685 195.329 111.237 194.677C108.124 193.847 112.177 184.634 114.082 185.334Z" fill="#8BC27C"/>
<path d="M113.705 186.619C114.055 187.843 114.023 190.103 113.48 191.221C110.724 196.974 109.391 190.227 113.705 186.619Z" fill="#6DA060"/>
<path d="M170.04 142.959C172.031 144.297 166.096 152.089 163.824 149.732C161.974 147.807 168.06 141.629 170.04 142.959Z" fill="#8BC27C"/>
<path d="M169.139 143.883C169.965 144.417 167.895 148.081 166.095 148.858C161.704 150.745 167.548 142.856 169.139 143.883Z" fill="#6DA060"/>
<path d="M154.041 145.286C157.315 146.596 149.493 156.895 148.497 152.382C147.989 150.065 152.391 144.622 154.041 145.286Z" fill="#8BC27C"/>
<path d="M153.608 146.269C154.325 146.553 153.118 150.162 151.266 151.728C147.654 154.75 149.946 147.201 153.608 146.269Z" fill="#6DA060"/>
<path d="M166.175 127.69C169.692 129.132 161.385 139.396 160.826 134.148C160.522 131.305 164.928 127.181 166.175 127.69Z" fill="#8BC27C"/>
<path d="M165.913 128.808C166.071 130.462 165.171 132.404 164.054 133.565C160.701 137.028 160.93 130.357 165.913 128.808Z" fill="#6DA060"/>
<path d="M194.946 148.566C196.972 150.209 196.024 155.963 194.312 157.503C192.003 159.58 191.225 151.161 194.946 148.566Z" fill="#8BC27C"/>
<path d="M194.747 149.974C195.549 151.281 195.262 154.472 194.57 155.627C192.561 158.999 193.062 150.813 194.747 149.974Z" fill="#6DA060"/>
<path d="M150.75 129.921C153.527 130.782 148.869 140.49 146.407 137.721C144.666 135.766 149.087 129.405 150.75 129.921Z" fill="#8BC27C"/>
<path d="M150.497 131.027C150.978 132.798 149.895 135.668 148.499 136.724C145.862 138.715 146.779 132.676 150.497 131.027Z" fill="#6DA060"/>
<path d="M136.424 108.209C138.61 109.366 132.384 114.271 130.002 113.804C126.082 113.049 134.225 107.044 136.424 108.209Z" fill="#8BC27C"/>
<path d="M135.523 109.133C136.088 109.663 133.599 111.72 133.161 111.998C128.437 114.954 129.648 110.067 135.523 109.133Z" fill="#6DA060"/>
<path d="M184.698 147.415C187.609 149.124 179.578 158.911 179.23 153.282C179.041 150.272 183.335 146.616 184.698 147.415Z" fill="#8BC27C"/>
<path d="M184.099 148.283C184.437 150.008 183.293 152.38 182.002 153.385C178.862 155.801 179.722 149.742 184.099 148.283Z" fill="#6DA060"/>
<path d="M192.623 171.892C192.665 171.78 192.766 171.71 192.568 171.591C192.754 171.193 192.757 169 193.34 167.875C194.096 166.395 195.644 165.373 195.926 163.742C199.37 167.276 193.743 176.123 192.631 171.88L192.623 171.892Z" fill="#8BC27C"/>
<path d="M195.844 165.898C196.398 165.858 195.938 169.122 195.635 169.739C193.171 174.763 192.218 169.577 195.844 165.898Z" fill="#6DA060"/>
<path d="M141.499 117.625C143.897 118.857 138.964 126.673 136.632 125.065C134.407 123.53 139.4 116.546 141.499 117.625Z" fill="#8BC27C"/>
<path d="M141.067 118.608C141.442 120.025 140.133 122.458 139.208 123.365C136.09 126.411 136.157 120.103 141.067 118.608Z" fill="#6DA060"/>
<path d="M184.608 168.419C186.963 169.586 182.243 177.321 179.864 175.68C177.639 174.146 182.643 167.45 184.608 168.419Z" fill="#8BC27C"/>
<path d="M184.001 169.299C184.572 169.465 183.971 172.474 182.432 173.993C179.142 177.236 180.037 170.568 184.001 169.299Z" fill="#6DA060"/>
<path d="M121.898 125.174C123.798 126.466 119.925 133.433 117.436 132.383C114.573 131.164 119.788 123.754 121.898 125.174Z" fill="#8BC27C"/>
<path d="M121.291 126.054C121.574 127.706 120.715 129.817 119.433 130.811C116.138 133.349 117.664 126.783 121.291 126.054Z" fill="#6DA060"/>
<path d="M120.793 112.597C122.736 113.446 118.881 118.476 116.674 119.131C111.68 120.62 118.182 111.446 120.793 112.597Z" fill="#8BC27C"/>
<path d="M120.071 113.644C120.985 114.152 118.62 116.945 117.749 117.572C112.977 120.953 118.465 112.765 120.071 113.644Z" fill="#6DA060"/>
<path d="M180.694 133.085C181.956 133.85 179.958 138.581 179.271 139.424C176.601 142.762 176.002 138.768 177.685 135.768C178.007 135.199 179.804 132.542 180.694 133.085Z" fill="#8BC27C"/>
<path d="M180.15 134.255C180.504 134.429 179.719 137.223 179.541 137.557C176.903 142.654 176.549 137.161 180.15 134.255Z" fill="#6DA060"/>
</g>
<defs>
<clipPath id="clip0_188_1181">
<rect width="216.675" height="216.675" fill="white" transform="translate(123.008) rotate(34.5904)"/>
</clipPath>
</defs>
</svg>
