<?xml version="1.0" encoding="UTF-8"?><svg id="Layer_2" xmlns="http://www.w3.org/2000/svg" width="54.37mm" height="65.38mm" viewBox="0 0 154.13 185.33"><defs><style>.cls-1{fill:#8BC27C;}</style></defs><g id="Layer_1-2"><polygon class="cls-1" points="131.15 67.44 99.69 67.43 99.67 67.44 131.35 67.44 131.15 67.44"/><path class="cls-1" d="M121.13,63.4c-.83-.41-1.66-.43-2.39-.36.73-.06,1.56-.04,2.39.36Z"/><path class="cls-1" d="M123.54,44.88h.02c2.47-1.82,5.28-3.25,7.37-5.59-.02.01-.05.03-.07.04-2.07,2.32-4.87,3.73-7.32,5.55Z"/><path class="cls-1" d="M99.77,62.4s-.02,0-.03,0c.01,0,.01,0,.03,0Z"/><path class="cls-1" d="M120.24,63.66c-1.01.06-2.3-.39-3-.44.7.05,1.98.5,3,.44Z"/><path class="cls-1" d="M142.36,71.89c-.11.06-1.81.49-5.3,1.33,3.85-.92,5.54-1.34,5.3-1.33Z"/><path class="cls-1" d="M108.69,65c3-.1,6.04-.02,9.02-.14-2.98.11-6.02.03-9.02.14Z"/><path class="cls-1" d="M105.62,65.85c-.54.07-1.08.15-1.55.24.46-.08.99-.16,1.52-.24,6.75-.9,13.75-.38,20.52-.02,0,0,0,0,0,0-6.78-.37-13.75-.88-20.5.02Z"/><path class="cls-1" d="M126.99,131.32s-.03-.02-.07-.05c.04.02.07.04.07.05Z"/><path class="cls-1" d="M108.32,65.02c.07,0,.13,0,.2-.01-.07,0-.13,0-.2.01Z"/><path class="cls-1" d="M50.96,182.1c6.98-2.13,47.02-19.68,53.38-23.22,25.24-14.1,38.63-38.97,21.05-64.88,8.13,2.94,17.54,2.94,25.24-1.28-8.82-1.39-16.27-6.71-23.12-11.93,9.75.53,21.67-6.88,26.62-15.15-12.02,1.28-23.04-5.18-34.87-6.03,9.14-7.18,15.24-18.17,18.73-29.11h-.02c-11.28,8.91-26.14,4-36.77,17.99-.7-.05,1.39-3.6-1.16-13.81-.47-1.83-5.3-15.07-5.85-15.7-3.21-3.67-1.15.51-1.12,1.39.16,3.6-6.62,13.04-7.78,17.83-3.35-13.45-12.28-24.71-15.7-38.19-3.95,14.02-10.73,18.23-5.45,34.77-5.88-5.45-14.2-7.63-19.36-14.01-1.97,18.19,10.59,23.93,9.74,25.06-23.37-4.61-40.39,7.82-48.22,29.79C1.16,90.07,2.24,116.24.17,132.4c-1.73,36.24,9.49,62.36,50.8,49.7ZM138.2,95.01c-5.5.31-11.89-1.03-16.23-4.52-7.62-8.44.22-.19,4.31,1.97,7.07,2.3-.06-.04-5.34-4.34-1.24-1.01-2.5-2.52-3.64-3.67,1.1-1.16,8.24,12.79,29.16,8.26.49.97-7.25,2.25-8.26,2.3ZM117.36,82.65c2.09,1.44,4.58,4.43,7.9,6.45,2.33,1.4,6.72,2.65,7.04,2.85,1.95,1.23-4.07-.37-5.54-1.15-5.2-2.74-13.3-10.81-9.4-8.14ZM144.72,92.25s.05-.02.08-.03l-.04.02s-.03,0-.04,0c-6.65,2.94-18.26-2.36-23.67-6.72-2.62-2.88-10.24-7.79-5.79-5.65,2.88,1.37,8.93,7.07,13.18,9.43,6.32,3.49,13.2,2.63,6.29,2.01-7.93-2.14-13.15-8.02-19.85-12.35,7.53,2.43,12.83,9.87,20.68,11.6l.08-.61c-6.61-1.05-11.47-6.73-17.05-10.1,5.17-.49,11.76,7.29,13.97,8.29.08.05.72-.05.54-.29-1.68-1.52-8.7-6.11-9.19-7-1.71-3.15,17.87,12.42,20.8,11.38ZM151.21,68.15c-7.91,8.26-19.49,14.58-31.03,10.64l10.02-.26c10.82-2.84.85-.35-3.57-.14-5.12.25-12.97-.74-17.36-3.13,9.79,3.08,20.46,2.61,30.02-.98.28-1.29-12.03,4.85-25.97,1.62-.69-.16-6.63-1.72-5.94-2.25,9.67,2.34,20.07,2.45,29.63-.41h.04s-.23-.15-.23-.15c-9.83,2.2-20.34,2.63-30-.5,11.52,1.57,21.14.89,32.46-1.12,4.67-.83,6.71-1.23,6.51-1.26-.19.09-2.26.48-6.51,1.23l-.41-.29s-.02,0-.03,0c-6.7.99-12.89,1.88-19.73,1.75-1.76-.03-13.7-.97-14.46-1.29-5.73-2.49,3.55-.56,8.23-.34,8.33.41,30.31-.44,38.07-3.43l.26.34ZM110.43,77.21c-.19-.22.37-.34.54-.29,1.22.34,1.65,2.2-.54.29ZM150.69,67.45c-6.01,3.79-50.03,3.8-49.3,1.36,11.62,1.29,23.69.89,35.26-.36l-.26-.34c-5.83.86-33.26,1.65-36.75-.67h.03c-.26-.19.14-.91-.1-1.08-.15-.11-3.44.2.86-.75-.28,1.92,1.5-.03,4.75-.38,3.9-1.43,7.96-1.84,12.07-2.01-1.57-.13-3.06-.42-4.68-.22,9.55-6.19,27.29,4.01,38.13,4.44ZM129.91,36.13c2.78-.82,5.97-3.04,4.04-1.04h.02s.01-.01.02-.02l.07.39c-10.2,8.16-19.35,12.99-23.88,16.73-3.73,3.06-6.81,7.06-10.59,10.03-.03.07,0,.11.03.14-.03-.03-.04-.07-.02-.13,3.78-2.97,6.88-6.97,10.59-10.04,4.53-3.73,13.68-8.57,23.88-16.73.03-.05.25.36.93-.86l.45.31c-7.41,14.98-11.28,23.52-27.91,28.62,11.58-7.12,13.93-9.46.43-.86-10.93,4.22,0-.96,3.87-3.66,2.97-2.1,8.69-6.58,10.73-9.28-5.32,4.6-14.12,11.75-20.5,14.23-5.93,2.32,3.15-2.55,4.32-3.35,5.21-3.63,10.38-8.08,15.15-12.06-3.18,1.84-20.11,15.98-22.37,15.26v-.03c-.23-.07-.85-.78-.97-1.01,0,0,0,0-.01.01-.01-.01-.46.3-.37-.42,3.79-5.23,7.87-9.2,13-13.04,2.83-2.12,14.75-8.83,5-3.89-7.05,4.48-13.52,9.66-18.5,16.42,4.3-9.61,13.48-15.38,22.36-20.1l-.45-.31c-6.63,3.67-13.22,7.61-18.26,13.43-7.24,12.25-4.57,4.18-.05-1.38,1.89-2.32,8.77-7.5,5.65-5.78-2.63,1.47-5.99,6.01-8.17,8.22,7.84-17.38,19.16-16.13,31.5-19.81ZM86.18,39.62c1.54-6,5.21-11.42,7.99-16.68.08.24.03.68.25.83.06-.09.25-.58.63-.2,3.48,9.65,7.8,20.73,2.87,30.66-.46-7.79-.66,3.96-1.66,3.86l.99-17.16-.48-3.66c0,2.01-.65,24.36-1.86,24.23-.35-7.78.67-15.64.63-23.42,0-.57-.04-3.97-.56-3.05-.38,5.89-.13,19.84-.76,24.28,0,.01,0,.02,0,.03,0,0,.56.77-.13.91-.25-.63.14-.86.13-.91v.02s0-.03,0-.05c-1.65-8.83.61-25.9.18-35.54,0,0,0,0,0,0h0c-1.01,13.02-1.73,26.1-.81,39.13-3.54-11.19-1.48-21.37-.47-32.68-1.61,9.46-3.16,19.12-1.25,28.67-3.97-8.75,0-21.21.68-30.72-1.73,9.15-3.86,18.57-2.39,27.88-1.57.58-1.72-8.04-1.68-9.16.19-4.7,1.64-9.35,2.17-14.02-1.92,6.88-3.34,14.19-2.2,21.33-.94,1.63-1.73-5.75-1.73-6.21.03-2.65,1-5.32,1.31-7.94-.78-.29-2.55,10.24-1.08,13.43-1.87.69-1.8-9.88-.77-13.88ZM85.73,54.5c2.92,1.24-3.62-.2-4.18-.22-6.92-.4-16.06,3.83-2.66.49,3.49-.03,7.27.2,9.98,2.71-6.01-2.55-12.68-1.93-18.71.27,5.81-1.05,12.5-2.96,17.86.47-6.07-1.86-12.89-1.66-18.87.5,3.16-.49,7.46-1.44,10.62-1.36.67.03,6.97.53,6.18,1.44-4.89-.11-15.09-.29-19.28.87h-.03c1.38-.02,19.31-.97,19.05-.03-4.79.34-9.71.21-14.49.69-.2.68,12.32-.3,13.36-.28,8.11.13-1.45,1.18-4.28,1.38-1.44.1-8.46-.18-8.02.49l15.09-.6-9.36,1.72c-.43,1.35,11.57-1.91,12.34-.49-4.05.03-.68.26-1.23.82-11.62,2.78-13.91,3.19-24.86-3.13.82-.1,1.59-.32,2.37-.53l.02-.03c-1.11.03-2.43-.15-3.78.4-1-.69,7.71-6.39,9.37-7.05,4.04-1.59,8.28-1.08,12.3.3l-.13.41c-3.8-.7-8.63-1.33-12.09.84,3.81-.9,9.74-1.64,13.41-.09ZM64.3,47.4c-4.38-4.61-10-8.86-12.73-14.45,6.4,6.85,13.54,12.98,20.84,18.88-1.74.08-7.6-5.76-8.17-5.79l-.31.45c8.63,6.16,10.13,8.51.37.92ZM63.38,26.24c-.65-8.81,2.84-13.3,5.81-21.01,1.04-1.88,2.65,5.08,4.09,8.34,3.28,7.3,8.01,14.68,10.23,22.41,3.62,12.66-1.22,2.83-4.05-1.63,1.49,4.28,6.95,10.01,4.09,13.66-2.96-7.24-6.91-14.95-9.24-22.39-.71-2.27-.91-5.89-1.48-4.85,2.12,10.9,7.64,20.76,11.63,31.03-.59.23-.58-.06-.86-.43-2.33-3.06-10.04-21.32-11.25-25.78-.63-2.32-.53-5.54-1.4-5.47,1.46,11.37,7.49,21.59,11.96,31.76-1.26.36-6.66-10.7-7.43-12.46-4-9.14-3.73-12.5-5.42-21.41h-.03c-1.27,8.88,5.92,25.45,10.91,33.05-.65,1.58-6.35-10.48-6.79-11.2-.84-.69.63,2.55,1.01,3.36,2.18,4.7,7.02,12.68.72,2.82-6.82-12.88-6.98-25.98-6-40.16-2.36,15.35-.55,31.56,7.87,44.95-.59.92-4.47-6.37-4.88-7.19-4.13-8.32-5.68-17.61-5.52-26.82-.65-.15-.32,7.41-.23,8.34.81,9.33,4.36,17.59,9.04,25.58l-.34.26c-4.66-7.42-9.53-15.02-10.52-23.93-1.57-.26,1.98,9.72,2.36,10.62,1.76,4.15,4.29,8.02,6.71,11.81-5.64-4.44-10.47-16.27-10.99-23.25ZM55.39,29.89h-.04c1.94,1.28,6.19,4.03,7.46,5.14,1.16,1,4.98,6.78,5.22,7.93.07.3-.22.71-.47.68-1.83-1.97-11.45-10.95-12.15-11.39-.49-.31-.77-.53-.76.14,19.91,17.28,20.45,19.54-.55,1.29-1.96-1.95-4.41-6.23-3.75-4.25,1.53,4.45,19.7,17.32,21.24,19.98.16.27.45.86.18.97-7.12-5.6-19.02-14.74-22.68-22.48-.13-.21-1.16.86-2.41-3.51,2.57,2.39,5.9,3.64,8.71,5.51ZM46.02,24.16s-.02-.05-.03-.07l.04-.02s0,.06,0,.09c4.56,12.14,14.72,20.54,24.24,28.83-6.21-3.81-12.11-8.51-16.8-14.09-2.92-3.47-7.55-11.79-2.7-2.86,4.93,6.79,11.42,12.18,18.33,16.97-5.36-2.24-10.33-5.9-14.31-10.21-1.22-.18,2.95,3.65,3.3,3.94,3,2.46,7.05,4.68,10.34,6.78l-.31.45c-10.98-5.28-23.54-16.5-22.09-29.81ZM1.95,123.99c.24-5.24,1.85-28.34,2.34-32.4,3.63-29.71,20.95-50.6,52.53-43.99,2.92,3.04,6.56,5.12,10.05,7.43l-9.45,7.66c7.94-2.82,8.63.6,15.12,2.75,7.31,2.42,11.79-.64,18.92-1.31,31.41,21.95,61.16,54.73,21.87,86.8,5.89-6.49,10.48-11.82,14.21-19.88h-.02c-.57-.45-.48-.27-.54.28-14.68,29.15-38.89,31.89-65.23,45.26-24.87,9.53-49.5,15.09-58.27-17.33-2.55-9.46-2-25.14-1.54-35.26Z"/><path class="cls-1" d="M127.52,130.1s.07-.1.1-.17c-.03.07-.07.12-.1.17Z"/><path class="cls-1" d="M70.16,17.09c-.26.05-.34.19-.34.34,0-.15.09-.29.34-.34.25.63-.14.86-.13.91,0,0,.38-.29.13-.91Z"/><path class="cls-1" d="M128.84,125.76c-.04.06-.07,1.52-.1,1.59-.12.26-1.03,1.46-1.32,1.9.29-.44,1.2-1.64,1.32-1.9.04-.06.06-1.53.1-1.6Z"/><path class="cls-1" d="M94.44,23.78s0,0-.01-.01c0,.01-.01.02-.02.02h.03Z"/><path class="cls-1" d="M100.22,62.31c1.31-.67,19.38-15,23.28-17.8,2.42-1.74,4.8-3.62,7.36-5.18.02-.02.04-.04.05-.05-2.58,1.57-4.99,3.46-7.43,5.22-3.89,2.8-21.97,17.13-23.28,17.8-.13.07-.3.11-.44.11.14,0,.32-.03.45-.1Z"/><path class="cls-1" d="M99.74,62.4s-.09-.02-.11-.04c.02.02.07.03.11.04Z"/><path class="cls-1" d="M98.21,62.77s0,0,0,0c4.36-3.85,8.3-8.34,12.89-11.93,6.25-4.9,17.6-10.26,22.87-15.76h0c-5.28,5.49-16.63,10.87-22.85,15.74-4.59,3.58-8.55,8.1-12.91,11.94Z"/><path class="cls-1" d="M108.32,65.02c-1.05.04-2.09.11-3.12.22,0,0-.01,0-.02,0,0,0,0,0,0,0,1.04-.11,2.09-.18,3.15-.22Z"/><path class="cls-1" d="M102.99,66.72l28.16.72h.23l-28.37-.72c-.58-.23.05-.44,1.06-.63-1.02.19-1.67.4-1.08.63Z"/><path class="cls-1" d="M126.11,65.82s.01,0,.02,0c1-.75-6.68-.65-7.49-1-.31.02-.62.03-.94.04.3-.01.61-.02.91-.03.8.35,8.43.25,7.5.99Z"/><path class="cls-1" d="M108.52,65.01c.06,0,.12,0,.17,0-.06,0-.12,0-.17,0Z"/><path class="cls-1" d="M138.83,71.1l.03.02c4.29-.64,6.73-.98,6.93-.95.23-.11-2.26.23-6.96.92Z"/><path class="cls-1" d="M136.82,73.06c3.43-.76,5.31-1.16,5.53-1.17.12-.07-1.78.33-5.53,1.17Z"/><path class="cls-1" d="M70.03,18s-.21-.32-.21-.57c0,.26.21.57.21.57Z"/><polygon class="cls-1" points="70.39 16.06 70.13 15.72 70 16.13 70.03 16.32 70.39 16.06"/><path class="cls-1" d="M117.24,63.22c.39-.02.91-.13,1.5-.18-.59.05-1.11.16-1.5.18Z"/><path class="cls-1" d="M121.13,63.4c-.25.17-.55.24-.89.26.34-.02.65-.1.89-.26Z"/><path class="cls-1" d="M80.75,64.41c1.06.02,1.77.04,2.82-.22,6-1.49-.2-.34-2.82.22,0,0,0,0,0,0h0Z"/><path class="cls-1" d="M80.75,64.41h0,0c-.05,0-.56-.54-1.07.1.12.42,1.07-.1,1.07-.1Z"/><path class="cls-1" d="M127.52,130.1c-.26.34-.66.33-.91.8.24-.47.64-.45.91-.8Z"/><path class="cls-1" d="M126.62,130.9c-.08.15.17.3.3.37-.13-.07-.37-.22-.3-.37Z"/><path class="cls-1" d="M127.42,129.26c-.04.06-.07.11-.08.14.01-.03.04-.08.08-.14Z"/><path class="cls-1" d="M68.15,172.64c6.96-4.25,29.02-12.77,32.77-15.11,5.65-3.51,18.7-15.52,20.66-21.96h-.02c-5.14,9.06-13.24,15.76-21.7,21.54-17.7,6.87-51.25,26.44-69.52,24.62-20.6-2.04-22.75-17.85-24-18.88-1.32-1.09.74,3.18,1.22,4.51,14.77,25.36,39.53,13.5,60.59,5.27Z"/><path class="cls-1" d="M121.16,132.31s-.06-.06-.12-.1c0,0,0,0-.02-.01-2.99,6.68-17.67,22.12-25.53,24.93-10.81,3.25-20.8,9.15-31.28,13.45-2.67,1.1-14.72,5.82-16.4,6.37-7.99,2.6-19.89,4.03-27.62.14-1.25-.63-2.78-2.31-4.03-2.62,4.39,4.87,13.55,6.25,19.83,5.84,13.12-.86,42.5-15.61,55.68-21.47,2.55-1.11,6.97-.5,15.91-9.03,3.26-3.11,12.15-13.42,13.52-17.19h-.02c.04-.12.12-.2.06-.29Z"/><path class="cls-1" d="M70.5,164.38s0,0,0,0c-.13.46.44.49.05.88-18.25,6.64-41.95,22.97-56.96,1.59-1.65-2.37-2.23-5.12-2.78-4.42,5.37,13.36,18.31,18.39,31.76,14.91,3.52-.9,24.98-9.63,29.82-12.29-.34-.03-1.54-.38-1.88-.64,0,0,0-.01,0-.02Z"/><path class="cls-1" d="M82.07,159.72c-.67.22-.89.87-1.09,1.12-.03.04-.05.06-.08.08h.02c12.56-5.02,19.51-6.31,28.98-16.87,5.6-6.23,13.82-18.42,13.83-26.83-2.08,10.05-7.79,19.32-14.82,26.8-9.59,10.2-14.84,10.36-26.83,15.69,0,0,0,.02,0,.03v-.03Z"/><path class="cls-1" d="M30.82,165.09c2.01.32,8.71-.37,7.34-.96h-.02s-7.39.57-7.39.57l-5.94-2.25c1.55,1.68,3.83,2.3,6.01,2.64Z"/><path class="cls-1" d="M103.68,139.26c-1.53.47-3.07,2.96-3.51,3.41-.14.13-2.68,1.54-2.52,2.43.34.26,6.25-5.23,6.03-5.84Z"/><path class="cls-1" d="M97.83,84.87l3.38-6.35c-1.51,1.67-3.09,4.09-3.38,6.35Z"/><path class="cls-1" d="M128.69,119.67c.32-.83.95-5.11.98-6.5-1.2,3-2.26,9.79-.98,6.5Z"/><path class="cls-1" d="M54.22,155.84c1.64-1.12,4.75-1.87,5.52-3.19v-.02s-5.63,2.63-5.63,2.63l.11.57Z"/><path class="cls-1" d="M92.29,140.77l4.17-3.14c-.17-.21-4.72,2.69-4.17,3.14Z"/><path class="cls-1" d="M62.99,156.4c.19-.14.96-.7.44-.86-7.11,3.21-3.03,2.97-.44.86Z"/><path class="cls-1" d="M92.28,133.06c-5.57,2.63-3.42,3.57-.43.86.4-.34.94-.7.43-.86Z"/><path class="cls-1" d="M79.61,148.02c-6.25,2.89-4.35,3.77-.97,1.18.22-.19,1.17-.97.97-1.18Z"/><path class="cls-1" d="M11.46,168.25l-2.19-3.36c-.18.83,1.68,3.8,2.19,3.36Z"/><path class="cls-1" d="M32.79,160.77c-5.92,1.71-5.01,2.51.27.34l-.27-.34Z"/><path class="cls-1" d="M77.83,152.28c.16-.16.55-.67.43-.86-6.96,3.31-2.12,2.55-.43.86Z"/><path class="cls-1" d="M107.57,124.92l2.16-2.18c-.82-.23-2.64,1.82-2.16,2.18Z"/><path class="cls-1" d="M68.22,148.35c.15-.15.4-.45.29-.65-6.89,2.88-1.2,1.68-.29.65Z"/><path class="cls-1" d="M50.48,158.12l-.26-.34c-4.06,1.69-3.48,2.47.26.34Z"/><path class="cls-1" d="M66.08,151.69l3.07-1.55c-.37.11-3.3,1.19-3.07,1.55Z"/><path class="cls-1" d="M38.34,161.91c1.26-.18,2.3-.79,3.41-1.31-.2.06-3.96.62-3.41,1.31Z"/><path class="cls-1" d="M7.54,156.53l-.69-2.64c-.66.5.06,2.96.69,2.64Z"/><path class="cls-1" d="M91.26,145.89c.28-.11,1.12-.41,1.04-.79-3.9.34-4.25,2.03-1.04.79Z"/><path class="cls-1" d="M118.12,126.55c-.19.08-.52.03-.57.11-.61.58-1.11,5.09.57-.11Z"/><path class="cls-1" d="M42.11,157.67c.02-.17-.11-.3-.26-.34-.81-.24-3.93,2.3.26.34Z"/><path class="cls-1" d="M43.26,159.63c-.77.29-1.51.96-1.51.96.72-.21,1.92-.14,1.51-.96Z"/><path class="cls-1" d="M31.28,171.92c-.43.32-7.35-.81-10.03-3.09-.64-.53-3.35-4.86-3.62-4.66,2.98,8.69,12.68,7.95,13.39,8.39.21.12.25,2.54,4.14,1.01,1.41-.56,3.91-3.16,4.32-3.35.89-.43,2.6-.37,3.59-.85,1.39-.66,6.84-3.6,7.22-3.7,2.79-.77,0,1.87,3.67,1.69.71-.04,3.34-1.14,3.94-1.61,3.21.5,12.54-5.27,14.1-5.45.37-.04.11.21.37.42,1.62-1.55,3.62-2.51,5.75-3.03.9-1.5,10.23-5.18,10.39-6.35-9.86,4.39-19.62,10.55-30.15,13.72h-.03c9.76-8.73-2.19-7.39-5.84-1.2l-11.47,5.26c-1.01-.58,3.62-4.86-1.74-4.02-.97.15-7.11,5.12-15.17-.96-.09-.06.72-.78-1.39-1.12,3.94,5.72,11.26,4.21,11.55,4.8.05.13-1.26,1.52-1.85,1.73-.95.32-7.18-1.01-10.3-3.43-1.18-.9-3.57-4.67-1.07-.4,4.76,5.22,13.93,3.48,10.23,6.21ZM60.7,159.99c.84.76-3.29,4.97-5.46,5.73-5.39,1.93-.28-5.18,5.46-5.73ZM40.33,166.29c.73.66-3.23,5.41-5.78,6.2-5.01,1.55.06-5.57,5.78-6.2Z"/><path class="cls-1" d="M102,147.31c-.24.08-2.16-.4-2.11-.8.07-.57,4.91-3.65,7.81-7.96,2.72-4.05-5.01,5.18-8.12,7.41-3.04,2.16-11.26,3.77-10.72,8.28-3.96,1.25-6.35,3.69-10.72,3.45-2.13.51-4.14,1.47-5.75,3.03-.68.65-1.36,1.21-1.79,2.09l-25.45,10.31c-6.6,2.53-17.4,2.67-23.49-1.03-3.61-2.19-5.91-7.29-6.26-6.16,3.77,7.52,13.45,10.46,21.36,9.9,7.69-.55,25.15-9.22,33.59-12.2h.02s.13.63.14.74c.37.26,1.55.61,1.88.64v.03c3.52.26,7.29-3.43,8.52-4.13.03-.02.06-.04.08-.08.19-.25.41-.91,1.09-1.12,0,0,0,0,0,0-.32-2.9,3.98-2.87,7.09-4.93,8.91,2.7,29.32-24.57,27.33-25.35-.99,3.58-12.29,17.13-14.49,17.87ZM74.38,163.6c-8.05,1.6,3.97-6.35,5.99-5.05,1.79,1.17-4.51,4.75-5.99,5.05ZM93.2,153.22c-7.4,2.05.21-4.89,6.75-5.19,1,1.06-5,4.71-6.75,5.19Z"/><path class="cls-1" d="M13.03,98.25c1.16-2.07,1.73-12-1.06-12.24-4.18-.38-4.16,21.67,1.06,12.24ZM12.25,87.56c.6,2.6,1.12,6.76.12,9.27-2.97,7.34-3.4-8.15-.12-9.27Z"/><path class="cls-1" d="M33.83,124.45c-1.82-.5-5.96,6.3-5.9,9.78.2,10.51,10.79-8.41,5.9-9.78ZM33.34,126.11c.98.26-.05,6.39-2.17,8.69-3.88,4.27-1.55-7.56,2.17-8.69Z"/><path class="cls-1" d="M49.93,151.88c2.69,2.65,13.15-8.13,9.67-9.66-2.91-1.3-11.97,7.42-9.67,9.66ZM58.67,143.58c1.05.72-3.11,6.06-5.64,6.95-6.29,2.25,3.68-8.31,5.64-6.95Z"/><path class="cls-1" d="M11.05,121.9c3.35-2.97,2.67-11.64,1.07-12.43-1.78-.86-3.75,4.77-4.02,6.06-.44,1.95.06,8.93,2.95,6.36ZM11.42,110.99c1.09-.09,1.13,6.45.29,8.04-3.01,5.69-3.9-3.72-.29-8.04Z"/><path class="cls-1" d="M75.28,145.85c3.24-.84,9.02-6.77,7.17-8.22-3.86-3.05-17.11,10.8-7.17,8.22ZM81.07,138.68c2.5,1.66-9.98,9.52-7.82,4.79,1.22-2.62,7.13-5.25,7.82-4.79Z"/><path class="cls-1" d="M70.42,130.17c3.5-1.21,8.23-8.17,5.97-9.39-3.92-2.11-14.21,12.21-5.97,9.39ZM70.74,128.74c-4.61,2.09-.97-5.36,4.71-6.6.61,2.02-2.95,5.8-4.71,6.6Z"/><path class="cls-1" d="M25.85,113.27c3.18,5.11,8.03-10.07,4.6-11.5-2.08-.89-6.51,8.45-4.6,11.5ZM29.98,103.45c.65.18.35,5.07-.06,6.13-3.2,8.18-5.58-1.32.06-6.13Z"/><path class="cls-1" d="M88.7,123.25c3.71.1,9.86-8.26,7.7-9.71-3.05-2.06-13.58,9.55-7.7,9.71ZM95.22,114.75c1.17.58-2.13,5.5-4.87,6.83-6.27,3.01,2.5-7.98,4.87-6.83Z"/><path class="cls-1" d="M48.06,100.9c-2.51-.89-8.47,10.43-4.92,11.96,3.08,1.32,8.17-10.79,4.92-11.96ZM45.12,110.72c-3.17,3.01-2.31-5.51,2.61-8.38.51,2.63-.75,6.61-2.61,8.38Z"/><path class="cls-1" d="M32.82,154.46c3.34,1.99,9.88-9.25,6.57-10.48-2.62-.99-9.72,8.61-6.57,10.48ZM38.68,145.47c1.02.47-.82,5.36-3.04,7.08-4.28,3.34-1.92-5.68,3.04-7.08Z"/><path class="cls-1" d="M14.53,140.84c3.21.83,6.16-11.02,3.31-12.07-2.43-.9-7.61,10.93-3.31,12.07ZM17.35,130.44c.75.2.3,4.78.02,5.52-3.18,8.4-5.57-1.04-.02-5.52Z"/><path class="cls-1" d="M48.23,80.34c-2.15-1.05-7.61,6.74-6.26,10.04,2.17,5.28,9.84-8.29,6.26-10.04ZM45.15,89.4c-3.42,3.38-2.76-5.18,2.53-7.76.54,2.49-.82,6.08-2.53,7.76Z"/><path class="cls-1" d="M50.6,130.86c3.58-1.02,7.39-9.3,5.01-10.4-3.43-1.57-11.17,12.14-5.01,10.4ZM49.97,129.58c-1.75-.86,1.51-6.78,4.91-7.62.97,2.79-3.62,8.26-4.91,7.62Z"/><path class="cls-1" d="M15.49,162.17c3.18.85,6.48-11.11,3.69-12.13-2.47-.91-7.73,11.05-3.69,12.13ZM18.41,157.69c-3.58,7.47-5.31-1.29.29-5.97.45,1.59.41,4.52-.29,5.97Z"/><path class="cls-1" d="M83.74,103.84c2.95,3.06,10.65-7.05,8.07-8.79-2.57-1.73-10.47,6.29-8.07,8.79ZM90.64,96.25c1.07.69-1.61,5.45-3.95,6.46-5.7,2.45,1.89-7.79,3.95-6.46Z"/><path class="cls-1" d="M63.85,107.28c1.29,5.86,11.44-7.51,7.19-9.21-2.14-.86-7.85,6.2-7.19,9.21ZM70.48,99.35c.93.37-.64,5.05-3.04,7.08-4.69,3.92-1.71-5.88,3.04-7.08Z"/><path class="cls-1" d="M86.79,75.24c-1.62-.66-7.34,4.69-6.94,8.38.73,6.81,11.51-6.51,6.94-8.38ZM86.45,76.69c.21,2.15-.96,4.67-2.41,6.17-4.35,4.49-4.05-4.16,2.41-6.17Z"/><path class="cls-1" d="M123.31,113.93c2.22-2,3.45-9.47.82-11.6-4.83,3.37-3.82,14.29-.82,11.6ZM123.87,104.16c1.04,1.7.67,5.84-.23,7.34-2.61,4.38-1.96-6.25.23-7.34Z"/><path class="cls-1" d="M66.77,78.13c-2.16-.67-7.9,7.59-5.64,10.12,3.2,3.59,9.24-9.01,5.64-10.12ZM66.45,79.57c.62,2.3-.78,6.02-2.59,7.39-3.42,2.58-2.23-5.25,2.59-7.39Z"/><path class="cls-1" d="M39.85,57.22c3.09.61,11.17-5.76,8.33-7.26-2.85-1.51-13.42,6.28-8.33,7.26ZM47.01,51.15c.73.69-2.5,3.36-3.07,3.72-6.13,3.84-4.56-2.51,3.07-3.72Z"/><path class="cls-1" d="M110.83,100.84c-1.77-1.04-7.34,3.71-7.1,7.61.45,7.31,10.87-5.4,7.1-7.61ZM110.05,101.96c.44,2.24-1.05,5.32-2.72,6.62-4.08,3.14-2.96-4.73,2.72-6.62Z"/><path class="cls-1" d="M122.05,127.39c-.76,1.46-.76,4.31-1,4.82,0,0,0,0,0,0,.06.03.1.07.12.1.08.1,0,.18-.05.29v-.02c1.45,5.51,8.76-5.97,4.29-10.56-.37,2.12-2.37,3.44-3.36,5.36ZM125.02,129.81c-3.2,6.52-4.43-.21.27-4.98.72-.05.12,4.18-.27,4.98Z"/><path class="cls-1" d="M48.45,71.83c3.03,2.09,9.43-8.06,6.32-9.66-2.72-1.4-9.2,7.66-6.32,9.66ZM54.21,63.45c.49,1.84-1.21,5-2.41,6.17-4.05,3.95-3.96-4.23,2.41-6.17Z"/><path class="cls-1" d="M104.56,137.52c3.09,2.13,9.21-7.91,6.16-9.42-2.55-1.26-9.04,7.43-6.16,9.42ZM109.93,129.24c.74.22-.04,4.12-2.04,6.09-4.27,4.21-3.11-4.44,2.04-6.09Z"/><path class="cls-1" d="M23.54,81.33c3.23,1.36,8.26-7.68,5.79-9.36-2.74-1.84-9.51,7.77-5.79,9.36ZM26.13,79.29c-4.28,3.29-2.3-5.23,2.41-6.17.37,2.14-.75,4.88-2.41,6.17Z"/><path class="cls-1" d="M22.55,64.13c2.86-.85,7.87-7.38,5.35-8.48-3.39-1.49-11.83,10.41-5.35,8.48ZM26.96,57.01c1.19.66-1.88,4.28-3.01,5.1-6.19,4.39.93-6.24,3.01-5.1Z"/><path class="cls-1" d="M103.79,90.47c.89-1.09,3.48-7.23,1.85-8.23-1.16-.7-3.49,2.74-3.91,3.48-2.18,3.89-1.41,9.08,2.06,4.74ZM104.93,83.76c.46.23-.56,3.85-.79,4.29-3.42,6.61-3.88-.51.79-4.29Z"/></g></svg>